<?xml version="1.0" encoding="utf-8"?>
<!-- Generator: Adobe Illustrator 19.2.1, SVG Export Plug-In . SVG Version: 6.00 Build 0)  -->
<svg version="1.1" id="Layer_1" xmlns="http://www.w3.org/2000/svg" xmlns:xlink="http://www.w3.org/1999/xlink" x="0px" y="0px"
	 viewBox="0 0 500 500" style="enable-background:new 0 0 500 500;" xml:space="preserve">
<style type="text/css">
	.st0{fill:#FFFFFF; stroke:black}
</style>
<polygon class="st0" points="150,0 100,0 50,0 50,50 100,50 150,50 200,50 200,0 "/>
<polygon class="st0" points="300,0 250,0 250,50 300,50 350,50 350,0 "/>
<rect x="350" class="st0" width="50" height="50"/>
<polygon class="st0" points="0,0 0,50 0,100 50,100 50,50 50,0 "/>
<rect x="100" y="50" class="st0" width="50" height="50"/>
<polygon class="st0" points="200,0 200,50 150,50 150,100 200,100 250,100 250,50 250,0 "/>
<rect x="250" y="50" class="st0" width="50" height="50"/>
<polygon class="st0" points="450,0 400,0 400,50 400,100 450,100 450,50 500,50 500,0 "/>
<rect y="100" class="st0" width="50" height="50"/>
<polygon class="st0" points="100,100 100,50 50,50 50,100 50,150 100,150 150,150 150,100 "/>
<polygon class="st0" points="200,100 150,100 150,150 200,150 250,150 250,100 "/>
<rect x="300" y="100" class="st0" width="50" height="50"/>
<polygon class="st0" points="350,50 300,50 300,100 350,100 350,150 400,150 400,100 400,50 "/>
<rect x="400" y="100" class="st0" width="50" height="50"/>
<polygon class="st0" points="450,50 450,100 450,150 500,150 500,100 500,50 "/>
<rect x="200" y="150" class="st0" width="50" height="50"/>
<polygon class="st0" points="250,100 250,150 250,200 300,200 300,150 300,100 "/>
<polygon class="st0" points="450,150 400,150 350,150 350,200 400,200 450,200 500,200 500,150 "/>
<rect y="200" class="st0" width="50" height="50"/>
<polygon class="st0" points="50,150 0,150 0,200 50,200 50,250 100,250 100,200 100,150 "/>
<polygon class="st0" points="150,150 100,150 100,200 100,250 150,250 150,200 200,200 200,150 "/>
<polygon class="st0" points="200,200 150,200 150,250 200,250 250,250 250,200 "/>
<polygon class="st0" points="300,150 300,200 300,250 350,250 350,200 350,150 "/>
<polygon class="st0" points="450,200 400,200 400,250 450,250 500,250 500,200 "/>
<polygon class="st0" points="50,250 0,250 0,300 50,300 100,300 100,250 "/>
<polygon class="st0" points="300,250 300,200 250,200 250,250 250,300 300,300 350,300 350,250 "/>
<rect x="450" y="250" class="st0" width="50" height="50"/>
<polygon class="st0" points="50,300 0,300 0,350 50,350 100,350 100,300 "/>
<rect x="100" y="300" class="st0" width="50" height="50"/>
<polygon class="st0" points="150,250 100,250 100,300 150,300 150,350 200,350 200,300 200,250 "/>
<polygon class="st0" points="250,300 250,250 200,250 200,300 200,350 250,350 300,350 300,300 "/>
<rect x="300" y="300" class="st0" width="50" height="50"/>
<polygon class="st0" points="350,200 350,250 350,300 350,350 400,350 400,300 400,250 400,200 "/>
<polygon class="st0" points="450,300 450,250 400,250 400,300 400,350 450,350 500,350 500,300 "/>
<rect y="350" class="st0" width="50" height="50"/>
<polygon class="st0" points="300,350 250,350 250,400 300,400 350,400 350,350 "/>
<polygon class="st0" points="400,350 350,350 350,400 400,400 450,400 450,350 "/>
<polygon class="st0" points="100,350 50,350 50,400 50,450 100,450 100,400 150,400 150,350 "/>
<rect x="150" y="400" class="st0" width="50" height="50"/>
<polygon class="st0" points="200,350 150,350 150,400 200,400 200,450 250,450 250,400 250,350 "/>
<polygon class="st0" points="350,400 300,400 300,450 350,450 400,450 400,400 "/>
<polygon class="st0" points="450,350 450,400 450,450 500,450 500,400 500,350 "/>
<polygon class="st0" points="0,400 0,450 0,500 50,500 50,450 50,400 "/>
<rect x="50" y="450" class="st0" width="50" height="50"/>
<polygon class="st0" points="150,450 150,400 100,400 100,450 100,500 150,500 200,500 200,450 "/>
<rect x="200" y="450" class="st0" width="50" height="50"/>
<polygon class="st0" points="300,450 300,400 250,400 250,450 250,500 300,500 350,500 350,450 "/>
<rect x="350" y="450" class="st0" width="50" height="50"/>
<polygon class="st0" points="450,450 450,400 400,400 400,450 400,500 450,500 500,500 500,450 "/>
</svg>
